<svg width="80" height="80" viewBox="0 0 80 80" fill="none" xmlns="http://www.w3.org/2000/svg">
<path d="M66.6002 17.2313C60.2314 12.1063 50.1564 11.2375 49.7252 11.2063C49.0564 11.15 48.419 11.525 48.144 12.1438C48.119 12.1813 47.9002 12.6875 47.6564 13.475C51.869 14.1875 57.044 15.6188 61.7252 18.525C62.4752 18.9875 62.7064 19.975 62.244 20.7251C61.9376 21.2189 61.419 21.4875 60.8814 21.4875C60.594 21.4875 60.3002 21.4063 60.0376 21.2439C51.9876 16.25 41.9376 16 40.0002 16C38.0626 16 28.0064 16.25 19.9627 21.2439C19.2127 21.7125 18.2252 21.4813 17.7627 20.7313C17.2939 19.975 17.5252 18.9938 18.2752 18.525C22.9564 15.625 28.1314 14.1875 32.344 13.4813C32.1002 12.6875 31.8814 12.1875 31.8626 12.1438C31.5814 11.525 30.9502 11.1375 30.2752 11.2063C29.844 11.2375 19.7689 12.1063 13.3127 17.3C9.94394 20.4189 3.2002 38.6439 3.2002 54.4001C3.2002 54.6813 3.2752 54.9501 3.4127 55.1939C8.0627 63.3689 20.7564 65.5063 23.6502 65.6001C23.6626 65.6001 23.6814 65.6001 23.7002 65.6001C24.2126 65.6001 24.694 65.3563 24.994 64.9439L27.919 60.9189C20.0252 58.8813 15.9939 55.4189 15.7627 55.2125C15.1002 54.6313 15.0377 53.6189 15.6252 52.9563C16.2064 52.2939 17.2189 52.2313 17.8814 52.8125C17.9752 52.9001 25.4002 59.2001 40.0002 59.2001C54.6252 59.2001 62.0502 52.8751 62.1252 52.8125C62.7876 52.2375 63.794 52.2939 64.3814 52.9625C64.9626 53.6251 64.9002 54.6313 64.2376 55.2125C64.0064 55.4189 59.9752 58.8813 52.0814 60.9189L55.0064 64.9439C55.3064 65.3563 55.7876 65.6001 56.3002 65.6001C56.319 65.6001 56.3376 65.6001 56.3502 65.6001C59.244 65.5063 71.9376 63.3689 76.5876 55.1939C76.7252 54.9501 76.8002 54.6813 76.8002 54.4001C76.8002 38.6439 70.0564 20.4189 66.6002 17.2313ZM29.6002 48.0001C26.5064 48.0001 24.0002 45.1375 24.0002 41.6001C24.0002 38.0625 26.5064 35.2001 29.6002 35.2001C32.694 35.2001 35.2002 38.0625 35.2002 41.6001C35.2002 45.1375 32.694 48.0001 29.6002 48.0001ZM50.4002 48.0001C47.3064 48.0001 44.8002 45.1375 44.8002 41.6001C44.8002 38.0625 47.3064 35.2001 50.4002 35.2001C53.494 35.2001 56.0002 38.0625 56.0002 41.6001C56.0002 45.1375 53.494 48.0001 50.4002 48.0001Z" fill="white"/>
</svg>
