<svg width="80" height="80" viewBox="0 0 80 80" fill="none" xmlns="http://www.w3.org/2000/svg">
<g clip-path="url(#clip0_4415_131)">
<path d="M35.9998 59.25C37.2498 59.25 38.3749 60.25 38.3749 61.625C38.3749 62.875 37.3748 64 35.9998 64C34.7498 64 33.6248 63 33.6248 61.625C33.6248 60.25 34.7498 59.25 35.9998 59.25ZM72.7499 44.75C71.4999 44.75 70.3748 43.75 70.3748 42.375C70.3748 41.125 71.3749 40 72.7499 40C73.9999 40 75.1248 41 75.1248 42.375C75.1248 43.625 73.9999 44.75 72.7499 44.75ZM72.7499 35.125C68.7499 35.125 65.4999 38.375 65.4999 42.375C65.4999 43.125 65.6249 43.875 65.8749 44.625L41.9998 57.375C40.6248 55.375 38.3748 54.25 35.9998 54.25C33.2498 54.25 30.7498 55.875 29.4998 58.25L7.99985 47C5.74985 45.75 3.99985 42.125 4.24985 38.625C4.37485 36.875 4.99985 35.5 5.87485 35C6.49985 34.625 7.12485 34.75 7.99985 35.125L8.12485 35.25C13.8748 38.25 32.4998 48 33.2498 48.375C34.4998 48.875 35.1248 49.125 37.2498 48.125L75.7498 28.125C76.3748 27.875 76.9998 27.375 76.9998 26.5C76.9998 25.375 75.8749 24.875 75.8749 24.875C73.6249 23.875 70.2498 22.25 66.9998 20.75C59.9998 17.5 51.9998 13.75 48.4998 11.875C45.4998 10.25 42.9998 11.625 42.6248 11.875L41.7499 12.25C25.8749 20.25 4.87485 30.625 3.62485 31.375C1.49985 32.625 0.12485 35.25 -0.00015045 38.5C-0.25015 43.625 2.37485 49 6.12485 50.875L28.8748 62.625C29.3748 66.125 32.4998 68.875 35.9998 68.875C39.9998 68.875 43.1248 65.75 43.2498 61.75L68.2498 48.25C69.4998 49.25 71.1249 49.75 72.7499 49.75C76.7499 49.75 79.9998 46.5 79.9998 42.5C79.9998 38.375 76.7499 35.125 72.7499 35.125Z" fill="white"/>
</g>
<defs>
<clipPath id="clip0_4415_131">
<rect width="80" height="80" fill="white"/>
</clipPath>
</defs>
</svg>
