<svg width="377" height="122" viewBox="0 0 377 122" fill="none" xmlns="http://www.w3.org/2000/svg">
<path d="M268.842 39.2408C269.759 39.2408 270.655 38.9688 271.418 38.4593C272.18 37.9499 272.774 37.2257 273.125 36.3785C273.476 35.5313 273.568 34.599 273.389 33.6996C273.21 32.8002 272.769 31.974 272.12 31.3256C271.472 30.6771 270.646 30.2355 269.746 30.0566C268.847 29.8777 267.915 29.9695 267.067 30.3205C266.22 30.6714 265.496 31.2657 264.986 32.0282C264.477 32.7907 264.205 33.6871 264.205 34.6041C264.205 35.8339 264.694 37.0132 265.563 37.8827C266.433 38.7523 267.612 39.2408 268.842 39.2408Z" fill="#F40638"/>
<path d="M302.922 29.9675C302.005 29.9675 301.108 30.2395 300.346 30.7489C299.583 31.2584 298.989 31.9826 298.638 32.8298C298.287 33.677 298.195 34.6093 298.374 35.5087C298.553 36.4081 298.995 37.2343 299.643 37.8827C300.292 38.5312 301.118 38.9728 302.017 39.1517C302.917 39.3306 303.849 39.2388 304.696 38.8878C305.543 38.5369 306.267 37.9426 306.777 37.1801C307.286 36.4176 307.558 35.5212 307.558 34.6041C307.558 33.3744 307.07 32.1951 306.2 31.3256C305.331 30.456 304.151 29.9675 302.922 29.9675Z" fill="#F40638"/>
<path d="M235.757 29.7031C232.86 29.6402 229.98 30.1654 227.291 31.2469C224.603 32.3285 222.161 33.9439 220.114 35.9956C219.474 36.6249 218.9 37.2872 218.348 37.9496C217.84 37.3204 217.244 36.6911 216.703 36.0839C214.773 34.0398 212.441 32.4175 209.853 31.3193C207.265 30.2211 204.478 29.6708 201.667 29.7031C198.77 29.6402 195.89 30.1654 193.201 31.2469C190.512 32.3285 188.071 33.9439 186.024 35.9956C185.4 36.6143 184.811 37.2666 184.258 37.9496C182.749 39.8278 181.576 41.953 180.791 44.2311C180.045 46.5304 179.673 48.9344 179.687 51.3516C179.725 53.0438 179.425 54.7265 178.805 56.3016C178.185 57.8766 177.258 59.3125 176.077 60.5255C174.944 61.7128 173.581 62.6578 172.071 63.3035C170.562 63.9491 168.937 64.282 167.295 64.282C165.654 64.282 164.029 63.9491 162.52 63.3035C161.01 62.6578 159.647 61.7128 158.514 60.5255C156.175 58.0499 154.872 54.7736 154.872 51.3682C154.872 47.9628 156.175 44.6865 158.514 42.2109C159.61 40.999 160.95 40.0308 162.444 39.3691C163.939 38.7073 165.556 38.3666 167.191 38.3691C167.286 38.3745 167.382 38.3745 167.478 38.3691C168.517 38.2157 169.468 37.6967 170.159 36.9052C170.85 36.1137 171.237 35.1016 171.249 34.0509C171.261 33.0001 170.898 31.9796 170.225 31.1725C169.552 30.3655 168.613 29.8249 167.577 29.6479H167.411C164.546 29.6076 161.702 30.1429 159.047 31.2218C156.392 32.3008 153.981 33.9016 151.956 35.9294C149.888 37.9086 148.252 40.2949 147.152 42.9379C146.052 45.5808 145.511 48.4231 145.564 51.2854C145.57 55.5738 146.846 59.7644 149.23 63.3287C151.615 66.8931 155.001 69.6717 158.962 71.3141C162.924 72.9565 167.283 73.3892 171.49 72.5577C175.697 71.7261 179.563 69.6675 182.602 66.6414C183.205 66.0308 183.776 65.3897 184.313 64.7205C185.857 62.8121 187.05 60.644 187.835 58.3176C188.56 56.0437 188.932 53.6721 188.939 51.2854C188.908 49.5954 189.213 47.9162 189.836 46.3451C190.46 44.7741 191.389 43.3425 192.571 42.1336C193.705 40.9412 195.07 39.9918 196.582 39.343C198.095 38.6943 199.723 38.3597 201.369 38.3597C203.015 38.3597 204.643 38.6943 206.156 39.343C207.668 39.9918 209.033 40.9412 210.168 42.1336C212.489 44.6246 213.779 47.9028 213.779 51.3075C213.779 54.7122 212.489 57.9904 210.168 60.4813C209.046 61.6985 207.678 62.6643 206.156 63.315C204.634 63.9658 202.991 64.2868 201.336 64.2569C200.291 64.4149 199.338 64.9424 198.649 65.7435C197.96 66.5447 197.581 67.5663 197.581 68.623C197.581 69.6797 197.96 70.7014 198.649 71.5025C199.338 72.3036 200.291 72.8311 201.336 72.9892C204.192 73.0416 207.029 72.5072 209.67 71.4191C212.311 70.3311 214.701 68.7125 216.692 66.6635C217.267 66.0653 217.813 65.439 218.326 64.7868C218.856 65.4271 219.43 66.0674 220.026 66.6856C223.052 69.7412 226.92 71.8268 231.136 72.6765C235.351 73.5263 239.725 73.1018 243.698 71.4572C247.672 69.8125 251.066 67.0221 253.449 63.4415C255.831 59.8609 257.093 55.6522 257.075 51.3516C257.113 48.5154 256.577 45.7007 255.5 43.0769C254.422 40.4531 252.825 38.0744 250.804 36.0839C248.872 34.0395 246.538 32.4171 243.948 31.319C241.359 30.2208 238.57 29.6706 235.757 29.7031ZM244.203 60.5255C243.069 61.7145 241.705 62.661 240.195 63.3077C238.684 63.9544 237.058 64.2878 235.415 64.2878C233.772 64.2878 232.146 63.9544 230.636 63.3077C229.125 62.661 227.762 61.7145 226.628 60.5255C224.294 58.0474 222.995 54.772 222.995 51.3682C222.995 47.9644 224.294 44.689 226.628 42.2109C227.762 41.0184 229.127 40.069 230.639 39.4203C232.152 38.7715 233.78 38.437 235.426 38.437C237.072 38.437 238.7 38.7715 240.213 39.4203C241.726 40.069 243.09 41.0184 244.225 42.2109C246.546 44.7019 247.836 47.98 247.836 51.3848C247.836 54.7895 246.546 58.0676 244.225 60.5586L244.203 60.5255Z" fill="white"/>
<path d="M327.308 65.3383C325.143 63.0597 323.954 60.0249 323.996 56.882V34.1957C323.938 33.0066 323.425 31.8854 322.562 31.0643C321.7 30.2432 320.555 29.7853 319.365 29.7853C318.174 29.7853 317.029 30.2432 316.167 31.0643C315.305 31.8854 314.792 33.0066 314.734 34.1957V56.9151C314.702 59.6659 315.243 62.3933 316.32 64.9245C317.397 67.4557 318.989 69.7356 320.993 71.6198C321.418 72.0714 321.931 72.4309 322.501 72.6758C323.071 72.9208 323.685 73.0461 324.305 73.0439C324.892 73.0557 325.476 72.9501 326.022 72.7335C326.568 72.5168 327.065 72.1934 327.485 71.7822C327.904 71.371 328.237 70.8802 328.465 70.3386C328.692 69.797 328.809 69.2155 328.809 68.6281C328.808 68.0449 328.688 67.4681 328.456 66.9329C328.225 66.3977 327.886 65.9152 327.462 65.5149L327.308 65.3383Z" fill="white"/>
<path d="M343.7 65.3383C341.543 63.054 340.356 60.023 340.388 56.882V34.1957C340.33 33.0066 339.816 31.8854 338.954 31.0643C338.092 30.2432 336.947 29.7853 335.757 29.7853C334.566 29.7853 333.421 30.2432 332.559 31.0643C331.697 31.8854 331.184 33.0066 331.126 34.1957C331.126 34.1957 331.126 56.871 331.126 56.9151C331.105 59.6724 331.659 62.4037 332.752 64.9353C333.845 67.4669 335.453 69.7433 337.473 71.6198C337.898 72.0719 338.411 72.4317 338.981 72.6767C339.551 72.9218 340.165 73.0468 340.785 73.0439C341.372 73.0557 341.956 72.9501 342.502 72.7335C343.048 72.5168 343.545 72.1934 343.965 71.7822C344.384 71.371 344.717 70.8802 344.945 70.3386C345.172 69.797 345.289 69.2155 345.289 68.6281C345.288 68.0449 345.168 67.4681 344.936 66.9329C344.705 66.3977 344.367 65.9152 343.942 65.5149L343.7 65.3383Z" fill="white"/>
<path d="M302.92 42.1995C301.69 42.1995 300.511 42.688 299.641 43.5575C298.772 44.427 298.283 45.6064 298.283 46.8361V51.8701C298.215 55.0824 296.929 58.1488 294.685 60.4478C293.551 61.6368 292.187 62.5833 290.677 63.23C289.166 63.8767 287.54 64.2101 285.897 64.2101C284.254 64.2101 282.628 63.8767 281.118 63.23C279.607 62.5833 278.244 61.6368 277.11 60.4478C275.934 59.2505 275.006 57.8322 274.381 56.2747C273.756 54.7173 273.445 53.0515 273.466 51.3733C273.466 51.3733 273.466 46.8802 273.466 46.8361C273.466 45.6064 272.978 44.427 272.108 43.5575C271.239 42.688 270.06 42.1995 268.83 42.1995C267.6 42.1995 266.421 42.688 265.551 43.5575C264.682 44.427 264.193 45.6064 264.193 46.8361V51.3733C264.119 57.1207 266.33 62.6624 270.341 66.7792C274.353 70.8961 279.835 73.2508 285.582 73.3255C291.33 73.4002 296.871 71.1886 300.988 67.1774C305.105 63.1661 307.46 57.6838 307.535 51.9364C307.535 51.7156 307.535 47.0458 307.535 46.8361C307.535 45.6102 307.049 44.4342 306.184 43.5653C305.32 42.6964 304.146 42.2053 302.92 42.1995Z" fill="#F40638"/>
<path d="M371.411 29.7029C370.811 29.6927 370.216 29.8009 369.658 30.0213C369.1 30.2417 368.591 30.57 368.161 30.9874C367.73 31.4048 367.386 31.903 367.148 32.4536C366.91 33.0042 366.783 33.5963 366.775 34.196V56.8823C366.816 60.0253 365.628 63.06 363.463 65.3386L363.253 65.5594C362.817 65.9539 362.466 66.4338 362.223 66.9693C361.98 67.5048 361.85 68.0846 361.84 68.6726C361.84 69.26 361.957 69.8415 362.184 70.3831C362.412 70.9247 362.745 71.4155 363.164 71.8267C363.584 72.2379 364.081 72.5613 364.627 72.778C365.173 72.9946 365.757 73.1001 366.344 73.0884C366.964 73.0906 367.578 72.9653 368.148 72.7203C368.718 72.4753 369.231 72.1159 369.656 71.6643C371.676 69.7878 373.284 67.5114 374.377 64.9798C375.47 62.4482 376.024 59.7169 376.004 56.9596V34.196C375.986 32.9926 375.494 31.8448 374.633 31.0031C373.773 30.1614 372.615 29.6941 371.411 29.7029Z" fill="white"/>
<path d="M360.184 49.342C358.019 47.0634 356.83 44.0286 356.872 40.8857V34.1957C356.814 33.0066 356.301 31.8854 355.439 31.0643C354.576 30.2432 353.432 29.7853 352.241 29.7853C351.05 29.7853 349.906 30.2432 349.043 31.0643C348.181 31.8854 347.668 33.0066 347.61 34.1957V40.9188C347.59 43.6761 348.144 46.4074 349.237 48.939C350.33 51.4706 351.937 53.747 353.958 55.6235C354.383 56.074 354.897 56.4328 355.466 56.6777C356.036 56.9226 356.65 57.0485 357.27 57.0476C357.858 57.0608 358.443 56.9564 358.99 56.7404C359.537 56.5244 360.036 56.2013 360.456 55.7899C360.877 55.3785 361.211 54.8872 361.439 54.3449C361.667 53.8026 361.785 53.2201 361.785 52.6318C361.784 52.0475 361.663 51.4696 361.429 50.9341C361.196 50.3985 360.855 49.9167 360.427 49.5186L360.184 49.342Z" fill="white"/>
<path d="M61 121C94.1371 121 121 94.1371 121 61C121 27.8629 94.1371 1 61 1C27.8629 1 1 27.8629 1 61C1 94.1371 27.8629 121 61 121Z" fill="white" stroke="black" stroke-width="0.04" stroke-miterlimit="10"/>
<path d="M61.002 8.39673C50.598 8.39673 40.4276 11.4819 31.777 17.262C23.1264 23.0422 16.3841 31.2577 12.4027 40.8697C8.42123 50.4818 7.37951 61.0586 9.40922 71.2626C11.4389 81.4667 16.4489 90.8398 23.8057 98.1965C31.1624 105.553 40.5354 110.563 50.7395 112.593C60.9436 114.623 71.5204 113.581 81.1324 109.6C90.7445 105.618 98.96 98.8758 104.74 90.2252C110.52 81.5746 113.605 71.4042 113.605 61.0002C113.605 47.0489 108.063 33.669 98.1982 23.8039C88.3332 13.9389 74.9533 8.39673 61.002 8.39673ZM56.9173 74.7997C55.2793 74.7997 53.6781 74.3138 52.3162 73.4035C50.9544 72.4932 49.8932 71.1995 49.2669 69.6859C48.6405 68.1724 48.4772 66.5071 48.7976 64.9007C49.1179 63.2943 49.9076 61.819 51.0666 60.6615C52.2257 59.504 53.702 58.7163 55.3088 58.3981C56.9156 58.0799 58.5807 58.2454 60.0935 58.8738C61.6062 59.5021 62.8985 60.5651 63.807 61.9281C64.7154 63.2911 65.1992 64.893 65.197 66.531C65.197 67.6178 64.9827 68.6939 64.5665 69.6979C64.1503 70.7018 63.5402 71.6138 62.7713 72.3817C62.0023 73.1497 61.0894 73.7585 60.085 74.1734C59.0805 74.5883 58.0041 74.8011 56.9173 74.7997ZM83.346 74.7997C81.708 74.7997 80.1068 74.3138 78.7449 73.4035C77.3831 72.4932 76.3219 71.1995 75.6955 69.6859C75.0692 68.1724 74.9059 66.5071 75.2263 64.9007C75.5466 63.2943 76.3363 61.819 77.4953 60.6615C78.6544 59.504 80.1307 58.7163 81.7375 58.3981C83.3443 58.0799 85.0094 58.2454 86.5222 58.8738C88.0349 59.5021 89.3272 60.5651 90.2357 61.9281C91.1441 63.2911 91.6279 64.893 91.6257 66.531C91.6257 67.6178 91.4114 68.6939 90.9952 69.6979C90.579 70.7018 89.9689 71.6138 89.2 72.3817C88.431 73.1497 87.5181 73.7585 86.5137 74.1734C85.5092 74.5883 84.4328 74.8011 83.346 74.7997ZM105.613 82.0195C100.91 80.187 99.2099 75.8153 99.2099 70.6488V66.6966C99.2099 58.9817 96.1451 51.5827 90.6898 46.1274C85.2345 40.6721 77.8356 37.6074 70.1206 37.6074C66.3227 37.568 62.5545 38.2809 59.0333 39.7047C55.5121 41.1286 52.3076 43.2354 49.6045 45.9036C46.9014 48.5718 44.7531 51.7487 43.2836 55.2511C41.8141 58.7535 41.0524 62.5121 41.0424 66.3102V79.4584C41.0424 92.7058 46.5622 102.906 55.6367 108.923C46.6039 107.144 38.3412 102.619 31.9786 95.9649C25.616 89.3111 21.4642 80.8543 20.0911 71.7511C18.718 62.6478 20.1907 53.3426 24.3077 45.1082C28.4247 36.8738 34.9849 30.1123 43.0912 25.7485C51.1975 21.3847 60.454 19.6316 69.5946 20.7291C78.7351 21.8266 87.3135 25.7211 94.1564 31.8798C100.999 38.0386 105.772 46.1609 107.823 55.1358C109.874 64.1107 109.102 73.5001 105.613 82.0195Z" fill="black"/>
<path d="M152.682 102.399C152.412 102.4 152.142 102.374 151.876 102.321C151.626 102.284 151.382 102.218 151.148 102.123L148.94 101.25C148.624 101.123 148.338 100.932 148.101 100.687C147.851 100.46 147.648 100.187 147.505 99.8815L146.467 97.486L147.648 96.9671L148.697 99.3627C148.773 99.514 148.878 99.649 149.006 99.7601C149.129 99.8736 149.266 99.9702 149.414 100.047L151.622 100.897C151.828 100.976 152.043 101.028 152.263 101.052C152.471 101.084 152.683 101.084 152.892 101.052L155.453 100.787C155.6 100.746 155.741 100.686 155.872 100.61C156.013 100.537 156.134 100.431 156.226 100.301L157.551 98.0931C157.615 97.9912 157.646 97.8714 157.639 97.7509C157.643 97.6307 157.612 97.512 157.551 97.4087L156.226 95.267C156.123 95.1343 156 95.0188 155.861 94.9248C155.721 94.8308 155.569 94.7565 155.409 94.704L149.889 93.6C149.554 93.5218 149.238 93.3752 148.962 93.1695C148.675 92.9827 148.431 92.7383 148.244 92.4519L147.14 90.796C146.942 90.4872 146.841 90.1253 146.853 89.7583C146.842 89.3947 146.942 89.0364 147.14 88.7316L148.244 87.0867C148.429 86.7995 148.669 86.5518 148.951 86.3581C149.218 86.1574 149.522 86.0111 149.845 85.9275L151.843 85.4087C152.165 85.3319 152.496 85.3022 152.826 85.3204C153.156 85.3238 153.484 85.3797 153.797 85.486L156.005 86.325C156.323 86.45 156.612 86.6377 156.855 86.8769C157.109 87.1005 157.319 87.3702 157.473 87.6718L158.334 89.4823L157.142 90.0453L156.292 88.2348C156.204 88.0883 156.096 87.9546 155.972 87.8374C155.848 87.7156 155.702 87.6183 155.541 87.5504L153.333 86.7113C153.143 86.6545 152.947 86.6248 152.748 86.623C152.554 86.5983 152.357 86.5983 152.163 86.623L150.165 87.1419C150 87.2009 149.844 87.2827 149.701 87.3848C149.552 87.4866 149.421 87.6136 149.315 87.7601L148.277 89.405C148.213 89.4988 148.182 89.6115 148.189 89.7251C148.182 89.8457 148.213 89.9654 148.277 90.0674L149.381 91.7123C149.476 91.8514 149.595 91.9712 149.734 92.0655C149.867 92.175 150.021 92.2542 150.187 92.2974L155.707 93.4013C156.036 93.4825 156.347 93.6248 156.623 93.8208C156.913 94.0124 157.158 94.2648 157.341 94.5605L158.677 96.6801C158.867 96.9964 158.967 97.3594 158.964 97.7288C158.97 98.0952 158.87 98.4556 158.677 98.7665L157.341 100.974C157.145 101.268 156.889 101.516 156.59 101.703C156.296 101.891 155.964 102.011 155.619 102.056L153.057 102.343H152.726L152.682 102.399Z" fill="#F40638"/>
<path d="M174.963 101.979H170.712C170.367 101.974 170.027 101.891 169.719 101.736C169.404 101.603 169.122 101.403 168.891 101.151L166.142 98.1147C165.924 97.8571 165.756 97.5614 165.645 97.2426C165.512 96.932 165.44 96.5981 165.436 96.2601V91.4358C165.442 91.0953 165.509 90.7588 165.634 90.4422C165.75 90.1248 165.914 89.8269 166.12 89.5591L168.891 86.3134C169.124 86.0607 169.405 85.8579 169.719 85.7173C170.027 85.5585 170.366 85.4717 170.712 85.4634H174.963C175.309 85.4717 175.649 85.5585 175.956 85.7173C176.276 85.8617 176.562 86.0724 176.795 86.3355L179.478 89.5591C179.684 89.8269 179.848 90.1248 179.964 90.4422C180.089 90.7588 180.156 91.0953 180.162 91.4358V96.2601C180.153 96.5941 180.082 96.9235 179.953 97.2315C179.828 97.5473 179.661 97.8445 179.456 98.1147L176.795 101.151C176.561 101.403 176.274 101.603 175.956 101.736C175.648 101.891 175.308 101.974 174.963 101.979ZM170.712 86.7771C170.559 86.7828 170.409 86.8204 170.271 86.8875C170.12 86.9496 169.987 87.0483 169.884 87.1745L167.125 90.4201C167.007 90.5604 166.917 90.7214 166.86 90.8948C166.791 91.0672 166.754 91.2504 166.749 91.4358V96.2601C166.753 96.4384 166.79 96.6145 166.86 96.7789C166.919 96.9448 167.009 97.0982 167.125 97.2315L169.84 100.289C169.963 100.403 170.105 100.492 170.26 100.554C170.402 100.622 170.556 100.659 170.712 100.665H174.963C175.119 100.659 175.273 100.622 175.415 100.554C175.568 100.496 175.704 100.401 175.813 100.278L178.473 97.2536C178.588 97.116 178.678 96.959 178.738 96.79C178.808 96.6217 178.845 96.442 178.849 96.2601V91.4358C178.844 91.2468 178.807 91.06 178.738 90.8838C178.68 90.7071 178.59 90.5424 178.473 90.3981L175.791 87.1745C175.69 87.0457 175.557 86.9465 175.404 86.8875C175.266 86.8204 175.116 86.7828 174.963 86.7771H170.712Z" fill="#F40638"/>
<path d="M194.49 101.979H192.282C191.933 101.973 191.59 101.89 191.277 101.736C190.959 101.597 190.671 101.398 190.427 101.151L187.701 98.1147C187.491 97.8517 187.323 97.5574 187.204 97.2426C187.07 96.932 186.999 96.5982 186.994 96.2601V85.7615H188.308V96.2601C188.312 96.4385 188.349 96.6145 188.418 96.779C188.478 96.9448 188.568 97.0983 188.683 97.2316L191.41 100.29C191.524 100.403 191.659 100.493 191.807 100.554C191.956 100.624 192.118 100.662 192.282 100.665H194.49C194.647 100.659 194.801 100.622 194.943 100.554C195.095 100.496 195.232 100.401 195.34 100.278L198.001 97.2537C198.116 97.116 198.205 96.959 198.266 96.79C198.33 96.6202 198.367 96.4414 198.376 96.2601V85.7615H199.69V96.2601C199.68 96.5941 199.609 96.9235 199.48 97.2316C199.356 97.5474 199.188 97.8445 198.983 98.1147L196.312 101.151C196.081 101.403 195.798 101.603 195.484 101.736C195.175 101.89 194.835 101.973 194.49 101.979Z" fill="#F40638"/>
<path d="M216.989 101.857H208.39C208.196 101.86 208.005 101.823 207.826 101.749C207.648 101.675 207.486 101.565 207.352 101.427C207.21 101.296 207.098 101.137 207.022 100.96C206.945 100.783 206.908 100.592 206.91 100.4V85.7394H208.224V100.4C208.22 100.423 208.222 100.446 208.229 100.468C208.236 100.489 208.248 100.509 208.264 100.526C208.28 100.542 208.3 100.554 208.322 100.561C208.344 100.568 208.367 100.569 208.39 100.565H216.978L216.989 101.857Z" fill="#F40638"/>
<path d="M233.273 101.857H224.685C224.491 101.86 224.3 101.823 224.121 101.749C223.943 101.675 223.781 101.565 223.647 101.427C223.505 101.296 223.393 101.137 223.316 100.96C223.24 100.783 223.202 100.592 223.205 100.4V85.7394H224.519V100.4C224.515 100.423 224.517 100.446 224.524 100.468C224.531 100.489 224.543 100.509 224.559 100.526C224.575 100.542 224.595 100.554 224.617 100.561C224.639 100.568 224.662 100.569 224.685 100.565H233.273V101.857Z" fill="#F40638"/>
<path d="M245.129 93.9309C244.929 93.9331 244.731 93.8872 244.552 93.7968C244.373 93.7065 244.219 93.5745 244.102 93.412L238.428 86.1701L239.443 85.3642L245.129 92.5951L251.068 85.3421L252.073 86.1701L246.144 93.4341C246.023 93.5873 245.868 93.7114 245.693 93.7973C245.517 93.8833 245.324 93.9289 245.129 93.9309ZM245.913 101.791H244.61V94.516H245.924L245.913 101.791Z" fill="#F40638"/>
<path d="M281.647 101.979C281.499 101.965 281.356 101.92 281.227 101.846C281 101.685 280.843 101.445 280.786 101.173L276.635 85.9271L277.882 85.596L281.68 99.4837L285.908 86.9428C285.932 86.8121 285.982 86.6877 286.056 86.5775C286.13 86.4673 286.226 86.3736 286.339 86.3025C286.479 86.2384 286.628 86.1938 286.78 86.17C286.926 86.1855 287.068 86.2266 287.2 86.2915C287.311 86.3663 287.406 86.4623 287.48 86.5741C287.554 86.6859 287.605 86.8112 287.63 86.9428L291.649 99.4396L295.656 85.5297L296.903 85.9051L292.488 101.14C292.464 101.276 292.412 101.406 292.336 101.522C292.26 101.638 292.162 101.737 292.046 101.813C291.918 101.878 291.78 101.919 291.638 101.935H291.461C291.375 101.92 291.293 101.89 291.218 101.846C291.123 101.781 291.037 101.703 290.964 101.614C290.87 101.484 290.799 101.338 290.754 101.184L286.769 88.5877L282.53 101.206C282.503 101.338 282.45 101.464 282.374 101.576C282.298 101.687 282.201 101.783 282.088 101.857C281.951 101.926 281.8 101.968 281.647 101.979Z" fill="#F40638"/>
<path d="M312.338 101.979H308.099C307.75 101.973 307.407 101.89 307.094 101.736C306.78 101.6 306.499 101.401 306.266 101.151L303.517 98.1147C303.307 97.8516 303.14 97.5574 303.02 97.2426C302.892 96.9303 302.821 96.5975 302.811 96.2601V91.4358C302.817 91.0953 302.884 90.7588 303.009 90.4422C303.125 90.1248 303.289 89.8269 303.495 89.5591L306.266 86.3134C306.501 86.0632 306.782 85.8607 307.094 85.7173C307.406 85.5597 307.749 85.473 308.099 85.4634H312.338C312.684 85.4717 313.024 85.5585 313.331 85.7173C313.651 85.8617 313.937 86.0724 314.17 86.3355L316.853 89.5591C317.059 89.8269 317.223 90.1248 317.339 90.4422C317.464 90.7588 317.531 91.0953 317.537 91.4358V96.2601C317.533 96.5947 317.462 96.9251 317.328 97.2315C317.212 97.5514 317.044 97.8499 316.831 98.1147L314.17 101.151C313.936 101.403 313.649 101.603 313.331 101.736C313.023 101.891 312.683 101.974 312.338 101.979ZM308.099 86.7771C307.941 86.7813 307.787 86.8189 307.646 86.8875C307.498 86.9536 307.366 87.0516 307.259 87.1745L304.5 90.4201C304.382 90.5604 304.292 90.7214 304.235 90.8948C304.166 91.0672 304.129 91.2504 304.124 91.4358V96.2601C304.128 96.4384 304.165 96.6145 304.235 96.7789C304.294 96.9448 304.384 97.0982 304.5 97.2315L307.226 100.289C307.343 100.405 307.482 100.495 307.635 100.554C307.781 100.622 307.938 100.659 308.099 100.665H312.338C312.498 100.658 312.655 100.62 312.801 100.554C312.953 100.499 313.086 100.404 313.188 100.278L315.848 97.2536C315.963 97.116 316.053 96.959 316.113 96.79C316.183 96.6217 316.22 96.442 316.224 96.2601V91.4358C316.219 91.2468 316.182 91.06 316.113 90.8838C316.055 90.7071 315.965 90.5424 315.848 90.3981L313.166 87.1745C313.067 87.0484 312.938 86.9496 312.79 86.8875C312.648 86.8204 312.494 86.7829 312.338 86.7771H308.099Z" fill="#F40638"/>
<path d="M337.001 102.188L330.929 94.6704H325.984V101.824H324.67V86.9427C324.678 86.553 324.837 86.1816 325.113 85.906C325.388 85.6304 325.76 85.4718 326.149 85.4634H332.663C332.99 85.4745 333.313 85.534 333.623 85.64C333.945 85.7413 334.244 85.9024 334.506 86.1147L336.427 87.5609C336.703 87.7849 336.926 88.0678 337.078 88.3889C337.242 88.6988 337.329 89.0432 337.332 89.3935V90.939C337.325 91.2902 337.234 91.6346 337.067 91.9436C336.908 92.2637 336.673 92.5403 336.383 92.7495L334.506 94.0522C334.236 94.2373 333.938 94.3789 333.623 94.4717C333.313 94.5749 332.989 94.6307 332.663 94.6372L338.072 101.371L337.001 102.188ZM325.962 93.3567H332.64C332.832 93.3495 333.021 93.3161 333.204 93.2573C333.395 93.209 333.576 93.1226 333.733 93.0034L335.61 91.7118C335.728 91.624 335.82 91.5056 335.875 91.3695C335.952 91.2504 335.998 91.1137 336.008 90.9721V89.4266C335.997 89.2783 335.951 89.1346 335.875 89.0071C335.823 88.8632 335.731 88.737 335.61 88.6428L333.7 87.1635C333.374 86.9427 332.991 86.8201 332.596 86.8102H326.083C326.06 86.8063 326.037 86.808 326.015 86.8149C325.993 86.8219 325.974 86.834 325.957 86.8502C325.941 86.8664 325.929 86.8863 325.922 86.9081C325.915 86.93 325.914 86.9532 325.917 86.9758L325.962 93.3567Z" fill="#F40638"/>
<path d="M354.455 101.857H345.866C345.673 101.86 345.481 101.823 345.303 101.749C345.124 101.675 344.963 101.565 344.828 101.427C344.687 101.296 344.574 101.137 344.498 100.96C344.422 100.783 344.384 100.592 344.387 100.4V85.7394H345.701V100.4C345.697 100.423 345.698 100.446 345.705 100.468C345.712 100.489 345.724 100.509 345.741 100.526C345.757 100.542 345.777 100.554 345.799 100.561C345.82 100.568 345.844 100.569 345.866 100.565H354.455V101.857Z" fill="#F40638"/>
<path d="M367.912 101.979H362.503C362.113 101.97 361.742 101.812 361.466 101.536C361.191 101.261 361.032 100.889 361.024 100.499V86.9429C361.021 86.7503 361.059 86.5593 361.135 86.3824C361.211 86.2055 361.323 86.0466 361.465 85.9162C361.599 85.7773 361.761 85.6674 361.939 85.5934C362.118 85.5193 362.31 85.4826 362.503 85.4856H367.725C368.052 85.4967 368.375 85.5563 368.685 85.6623C369.003 85.7609 369.302 85.9141 369.568 86.1149L372.957 88.7313C373.23 88.9517 373.449 89.231 373.598 89.5482C373.761 89.8539 373.849 90.1949 373.852 90.5418V97.1655C373.849 97.5124 373.761 97.8533 373.598 98.1591C373.445 98.477 373.222 98.7562 372.946 98.976L369.778 101.361C369.512 101.561 369.213 101.714 368.895 101.813C368.579 101.922 368.247 101.978 367.912 101.979ZM362.503 86.7773C362.392 86.7773 362.337 86.7773 362.337 86.9208V100.499C362.333 100.522 362.335 100.545 362.342 100.567C362.349 100.589 362.361 100.609 362.377 100.625C362.393 100.641 362.413 100.653 362.435 100.66C362.457 100.667 362.48 100.669 362.503 100.665H367.912C368.1 100.658 368.286 100.624 368.464 100.566C368.655 100.515 368.835 100.429 368.994 100.312L372.151 97.9272C372.274 97.8367 372.369 97.7146 372.427 97.574C372.495 97.4436 372.537 97.301 372.549 97.1545V90.5307C372.536 90.3807 372.495 90.2345 372.427 90.1002C372.369 89.9566 372.274 89.831 372.151 89.7359L368.84 87.1416C368.683 87.0329 368.512 86.9474 368.332 86.8877C368.153 86.829 367.967 86.7956 367.78 86.7883L362.503 86.7773Z" fill="#F40638"/>
<path d="M264.693 95.2228C265.608 95.2228 266.349 94.4814 266.349 93.5668C266.349 92.6523 265.608 91.9109 264.693 91.9109C263.778 91.9109 263.037 92.6523 263.037 93.5668C263.037 94.4814 263.778 95.2228 264.693 95.2228Z" fill="#F40638"/>
</svg>
