<svg width="373" height="120" viewBox="0 0 373 120" fill="none" xmlns="http://www.w3.org/2000/svg">
<path d="M265.837 38.252C268.379 38.252 270.439 36.1761 270.439 33.6154C270.439 31.0546 268.379 28.9788 265.837 28.9788C263.296 28.9788 261.235 31.0546 261.235 33.6154C261.235 36.1761 263.296 38.252 265.837 38.252Z" fill="#F40638"/>
<path d="M198.803 72.0332C201.175 72.0332 203.098 70.0809 203.098 67.6726C203.098 65.2643 201.175 63.312 198.803 63.312C196.431 63.312 194.508 65.2643 194.508 67.6726C194.508 70.0809 196.431 72.0332 198.803 72.0332Z" fill="white"/>
<path d="M165.24 37.4349C167.613 37.4349 169.535 35.4826 169.535 33.0742C169.535 30.6659 167.613 28.7136 165.24 28.7136C162.868 28.7136 160.945 30.6659 160.945 33.0742C160.945 35.4826 162.868 37.4349 165.24 37.4349Z" fill="white"/>
<path d="M299.66 38.252C302.202 38.252 304.262 36.1761 304.262 33.6154C304.262 31.0546 302.202 28.9788 299.66 28.9788C297.119 28.9788 295.059 31.0546 295.059 33.6154C295.059 36.1761 297.119 38.252 299.66 38.252Z" fill="#F40638"/>
<path d="M247.9 35.0949C245.984 33.0508 243.669 31.4286 241.101 30.3304C238.532 29.2322 235.766 28.6818 232.976 28.714C230.1 28.6527 227.241 29.1776 224.571 30.2571C221.902 31.3365 219.476 32.9483 217.439 34.9958C215.386 36.9771 213.763 39.3652 212.671 42.01C211.579 44.6548 211.042 47.4988 211.095 50.3627C211.051 53.2149 211.588 56.0459 212.671 58.6812C213.755 61.3166 215.363 63.7005 217.396 65.6858C219.367 67.7355 221.735 69.3562 224.353 70.4479C226.97 71.5397 229.782 72.0794 232.615 72.0335C235.449 72.0867 238.263 71.5537 240.885 70.4676C243.506 69.3815 245.879 67.7651 247.856 65.7187C249.887 63.7267 251.491 61.3365 252.569 58.6952C253.647 56.054 254.176 53.2181 254.123 50.3627C254.164 47.5261 253.634 44.7106 252.564 42.0863C251.495 39.462 249.908 37.0835 247.9 35.0949ZM241.325 59.5367C240.212 60.7539 238.855 61.7197 237.344 62.3704C235.833 63.0212 234.203 63.342 232.56 63.3121C230.927 63.3291 229.308 62.9999 227.809 62.3456C226.31 61.6914 224.965 60.7268 223.86 59.5146C222.681 58.3097 221.752 56.8793 221.13 55.3076C220.507 53.736 220.202 52.0547 220.233 50.3627C220.203 48.6711 220.505 46.9902 221.124 45.4173C221.743 43.8444 222.665 42.4108 223.838 41.1999C224.95 39.9796 226.306 39.0111 227.817 38.3583C229.328 37.7055 230.96 37.3835 232.604 37.4134C234.246 37.3814 235.876 37.7003 237.387 38.3491C238.898 38.998 240.255 39.962 241.369 41.1778C242.54 42.3935 243.46 43.8314 244.075 45.4081C244.69 46.9849 244.988 48.669 244.952 50.3627C244.99 52.0532 244.695 53.7345 244.084 55.3092C243.473 56.884 242.557 58.3208 241.391 59.5367H241.325Z" fill="white"/>
<path d="M186.541 50.3628C186.51 48.6712 186.813 46.9903 187.432 45.4174C188.051 43.8445 188.973 42.4109 190.146 41.2C191.258 39.9797 192.614 39.0112 194.125 38.3584C195.636 37.7056 197.268 37.3836 198.911 37.4135C200.553 37.3815 202.184 37.7004 203.694 38.3492C205.205 38.9981 206.563 39.9621 207.677 41.1779C208.848 42.3936 209.768 43.8315 210.383 45.4083C210.998 46.985 211.296 48.6691 211.26 50.3628C211.295 52.0548 210.996 53.737 210.381 55.3118C209.766 56.8866 208.847 58.3227 207.677 59.5368C206.564 60.7545 205.207 61.7205 203.696 62.3713C202.185 63.0221 200.554 63.3428 198.911 63.3122V72.0336C201.745 72.0868 204.56 71.5538 207.181 70.4677C209.803 69.3816 212.175 67.7652 214.152 65.7188C216.179 63.7237 217.781 61.3329 218.858 58.6924C219.936 56.0519 220.467 53.2175 220.42 50.3628C220.461 47.5262 219.931 44.7107 218.861 42.0864C217.791 39.4621 216.204 37.0836 214.196 35.095C212.281 33.0509 209.966 31.4287 207.398 30.3305C204.829 29.2323 202.063 28.6819 199.273 28.7141C196.397 28.6521 193.538 29.1769 190.868 30.2563C188.198 31.3358 185.772 32.9479 183.736 34.9959C183.12 35.6183 182.539 36.2744 181.994 36.9609C180.481 38.8359 179.302 40.9612 178.51 43.2424C177.769 45.5417 177.399 47.9456 177.414 50.3628C177.449 52.0548 177.151 53.737 176.536 55.3118C175.921 56.8866 175.001 58.3227 173.831 59.5368C172.717 60.754 171.361 61.7198 169.85 62.3705C168.339 63.0213 166.708 63.3421 165.066 63.3122C163.433 63.3272 161.815 62.9969 160.316 62.3428C158.818 61.6886 157.472 60.7253 156.366 59.5147C155.19 58.3078 154.265 56.8767 153.644 55.3053C153.023 53.734 152.719 52.0538 152.75 50.3628C152.717 48.6709 153.018 46.9893 153.637 45.4161C154.256 43.8428 155.18 42.4095 156.355 41.2C157.46 39.9861 158.807 39.0215 160.309 38.3689C161.81 37.7164 163.431 37.3907 165.066 37.4135L165.427 28.7141C162.553 28.653 159.696 29.178 157.028 30.2574C154.359 31.3369 151.936 32.9487 149.901 34.9959C147.848 36.9772 146.224 39.3653 145.133 42.0101C144.041 44.6549 143.504 47.4989 143.557 50.3628C143.513 53.215 144.05 56.046 145.133 58.6813C146.217 61.3167 147.825 63.7006 149.857 65.6859C151.826 67.7363 154.192 69.3575 156.808 70.4494C159.424 71.5413 162.234 72.0806 165.066 72.0336C167.901 72.087 170.718 71.5541 173.341 70.468C175.964 69.3819 178.338 67.7655 180.318 65.7188C180.919 65.1069 181.486 64.462 182.016 63.7869C183.549 61.8784 184.732 59.7105 185.511 57.3841C186.208 55.1104 186.556 52.7425 186.541 50.3628Z" fill="white"/>
<path d="M324.072 64.571C324.009 64.4922 323.939 64.4181 323.864 64.35C321.724 62.0657 320.546 59.0348 320.577 55.8938V33.1964C320.569 32.5982 320.443 32.0075 320.207 31.4583C319.972 30.909 319.631 30.4119 319.205 29.9956C318.778 29.5792 318.274 29.2519 317.722 29.0321C317.17 28.8122 316.58 28.7041 315.986 28.7143C315.392 28.7041 314.801 28.8121 314.249 29.0318C313.696 29.2515 313.191 29.5788 312.764 29.995C312.336 30.4113 311.995 30.9081 311.758 31.4575C311.521 32.0068 311.394 32.5976 311.384 33.1964V55.9159C311.364 58.6732 311.914 61.4044 312.999 63.936C314.084 66.4676 315.679 68.7442 317.685 70.6207C318.107 71.0712 318.617 71.4299 319.182 71.6748C319.747 71.9197 320.356 72.0454 320.972 72.0445C321.55 72.0562 322.125 71.9527 322.663 71.7394C323.201 71.5262 323.692 71.2077 324.108 70.8023C324.524 70.397 324.855 69.9128 325.084 69.3776C325.313 68.8424 325.435 68.2667 325.442 67.684C325.44 67.0979 325.317 66.5186 325.081 65.9828C324.845 65.4469 324.502 64.9663 324.072 64.571Z" fill="white"/>
<path d="M340.352 64.571L340.143 64.35C337.996 62.0708 336.816 59.0365 336.856 55.8938V33.1964C336.836 31.9891 336.342 30.8391 335.481 29.9988C334.62 29.1586 333.464 28.6966 332.265 28.7143C331.671 28.7041 331.081 28.8121 330.528 29.0318C329.975 29.2515 329.47 29.5788 329.043 29.995C328.616 30.4113 328.274 30.9081 328.037 31.4575C327.801 32.0068 327.674 32.5976 327.664 33.1964V55.9159C327.644 58.6732 328.194 61.4045 329.278 63.936C330.363 66.4676 331.959 68.7442 333.964 70.6207C334.386 71.0712 334.896 71.4299 335.461 71.6748C336.027 71.9197 336.636 72.0454 337.251 72.0446C337.83 72.0577 338.406 71.9553 338.946 71.7427C339.485 71.5301 339.978 71.2119 340.394 70.8064C340.811 70.4009 341.144 69.916 341.374 69.3801C341.603 68.8442 341.725 68.2677 341.732 67.684C341.729 67.0971 341.604 66.5173 341.366 65.9814C341.129 65.4455 340.783 64.9654 340.352 64.571Z" fill="white"/>
<path d="M299.659 41.1996C298.439 41.1996 297.268 41.6882 296.405 42.5577C295.542 43.4272 295.057 44.6064 295.057 45.8361C295.057 45.8361 295.057 50.6936 295.057 50.8813C294.983 54.0953 293.707 57.1627 291.485 59.4701C290.372 60.6873 289.015 61.6531 287.504 62.3038C285.993 62.9546 284.363 63.2754 282.72 63.2455C281.086 63.2626 279.468 62.9333 277.969 62.279C276.47 61.6248 275.125 60.6603 274.02 59.448C272.852 58.2532 271.93 56.8373 271.307 55.2818C270.685 53.7262 270.374 52.0617 270.393 50.3846C270.393 50.3846 270.393 45.8803 270.393 45.8361C270.393 45.2273 270.274 44.6244 270.043 44.0619C269.812 43.4994 269.473 42.9882 269.045 42.5577C268.618 42.1271 268.111 41.7857 267.552 41.5527C266.994 41.3196 266.396 41.1996 265.791 41.1996C264.571 41.1996 263.4 41.6882 262.537 42.5577C261.674 43.4272 261.19 44.6064 261.19 45.8361V50.3735C261.161 53.212 261.705 56.0267 262.788 58.6473C263.871 61.2678 265.47 63.6398 267.49 65.6192C269.461 67.6689 271.829 69.2896 274.447 70.3814C277.064 71.4731 279.876 72.0128 282.709 71.967C285.543 72.0188 288.357 71.4852 290.978 70.3992C293.599 69.3131 295.972 67.6977 297.95 65.6524C299.906 63.7373 301.467 61.451 302.543 58.9254C303.619 56.3998 304.188 53.6847 304.217 50.9366C304.217 50.7268 304.217 46.0569 304.217 45.8361C304.214 44.6149 303.735 43.444 302.882 42.5763C302.029 41.7086 300.871 41.2141 299.659 41.1996Z" fill="#F40638"/>
<path d="M359.507 64.571L359.715 64.35C361.863 62.0708 363.042 59.0365 363.002 55.8938V33.1964C363.012 32.5976 363.139 32.0068 363.375 31.4575C363.612 30.9081 363.954 30.4113 364.381 29.995C364.809 29.5788 365.313 29.2515 365.866 29.0318C366.419 28.8121 367.009 28.7041 367.604 28.7143C368.802 28.6966 369.958 29.1586 370.819 29.9988C371.68 30.8391 372.174 31.9891 372.195 33.1964V55.9159C372.215 58.6732 371.665 61.4045 370.58 63.936C369.495 66.4676 367.9 68.7442 365.894 70.6207C365.472 71.0712 364.962 71.4299 364.397 71.6748C363.832 71.9197 363.223 72.0454 362.607 72.0446C362.028 72.0577 361.452 71.9553 360.912 71.7427C360.373 71.5301 359.88 71.2119 359.464 70.8064C359.047 70.4009 358.714 69.916 358.485 69.3801C358.255 68.8442 358.133 68.2677 358.126 67.684C358.132 67.0975 358.258 66.5186 358.496 65.983C358.733 65.4475 359.077 64.9671 359.507 64.571Z" fill="white"/>
<path d="M356.712 48.5747L356.504 48.3537C354.355 46.0751 353.175 43.0404 353.217 39.8975V33.1964C353.207 32.5976 353.08 32.0068 352.843 31.4575C352.606 30.9081 352.265 30.4113 351.837 29.995C351.41 29.5788 350.905 29.2515 350.353 29.0318C349.8 28.8121 349.209 28.7041 348.615 28.7143C347.417 28.6966 346.26 29.1586 345.4 29.9988C344.539 30.8391 344.044 31.9891 344.024 33.1964V39.9196C344.004 42.6769 344.554 45.4081 345.639 47.9397C346.723 50.4713 348.319 52.7479 350.324 54.6244C350.748 55.0729 351.258 55.4302 351.823 55.675C352.388 55.9197 352.996 56.0465 353.611 56.0482C354.194 56.06 354.773 55.9547 355.315 55.738C355.857 55.5214 356.351 55.1978 356.767 54.7866C357.183 54.3754 357.514 53.8847 357.74 53.3431C357.966 52.8015 358.082 52.2198 358.082 51.6324C358.07 51.056 357.943 50.488 357.707 49.9625C357.472 49.4369 357.133 48.9649 356.712 48.5747Z" fill="white"/>
<path d="M150.472 99.1904C150.218 99.1855 149.965 99.1595 149.716 99.1131C149.488 99.078 149.264 99.0189 149.048 98.9365L146.977 98.1196C146.683 97.9956 146.415 97.8157 146.188 97.5897C145.961 97.3714 145.775 97.1134 145.64 96.8281L144.676 94.6202L145.771 94.1342L146.736 96.3421C146.8 96.4879 146.898 96.6165 147.021 96.7176C147.138 96.8206 147.267 96.9095 147.404 96.9825L149.453 97.7884C149.645 97.8554 149.843 97.9037 150.045 97.932C150.241 97.959 150.44 97.959 150.636 97.932L153.014 97.6781C153.151 97.6381 153.284 97.5824 153.408 97.5124C153.535 97.4435 153.644 97.3451 153.726 97.2254L154.964 95.2053C155.022 95.1089 155.048 94.9972 155.041 94.8851C155.05 94.7694 155.023 94.6537 154.964 94.5539L153.726 92.5556C153.637 92.4257 153.521 92.3164 153.387 92.2355C153.261 92.1415 153.12 92.0706 152.97 92.0258L147.853 90.9218C147.546 90.8454 147.256 90.7106 146.999 90.5245C146.73 90.3517 146.502 90.1218 146.33 89.851L145.344 88.2945C145.156 88.0111 145.06 87.6751 145.07 87.334C145.058 86.9927 145.154 86.6565 145.344 86.3737L146.33 84.828C146.503 84.5616 146.726 84.3327 146.988 84.1547C147.231 83.9612 147.511 83.8185 147.81 83.735L149.672 83.2494C149.975 83.1875 150.284 83.1615 150.593 83.172C150.897 83.1847 151.199 83.2368 151.491 83.3267L153.551 84.1105C153.849 84.2285 154.121 84.4048 154.351 84.6293C154.586 84.8439 154.782 85.0978 154.931 85.3799L155.72 87.069L154.625 87.5989L153.836 85.8988C153.752 85.7658 153.653 85.6437 153.54 85.5346C153.424 85.4222 153.291 85.329 153.146 85.2586L151.075 84.4746C150.897 84.4218 150.712 84.396 150.527 84.3975C150.348 84.3792 150.168 84.3792 149.99 84.3975L148.138 84.8832C147.983 84.9408 147.835 85.0187 147.7 85.115C147.561 85.2126 147.439 85.332 147.338 85.4683L146.374 87.0138C146.314 87.1006 146.287 87.2064 146.297 87.3119C146.29 87.4239 146.317 87.5357 146.374 87.632L147.36 89.1664C147.447 89.298 147.558 89.4107 147.689 89.4977C147.813 89.6022 147.959 89.6775 148.116 89.7184L153.233 90.8224C153.543 90.9009 153.836 91.0357 154.099 91.2199C154.37 91.3991 154.598 91.6365 154.767 91.9153L156.005 93.9024C156.185 94.1974 156.277 94.5389 156.268 94.8851C156.275 95.2242 156.184 95.5578 156.005 95.8454L154.767 97.8657C154.58 98.1419 154.337 98.375 154.055 98.55C153.789 98.7365 153.479 98.8506 153.156 98.8813L150.779 99.1573H150.472V99.1904Z" fill="#F40638"/>
<path d="M168.079 98.8147H164.134C163.815 98.8074 163.502 98.7322 163.214 98.5939C162.919 98.4616 162.654 98.27 162.436 98.0309L159.883 95.1939C159.688 94.9517 159.533 94.6797 159.423 94.3881C159.299 94.0944 159.232 93.7796 159.226 93.4606V88.9454C159.233 88.6277 159.296 88.314 159.412 88.0182C159.516 87.7196 159.668 87.44 159.861 87.1903L162.436 84.1544C162.654 83.9152 162.919 83.7236 163.214 83.5913C163.497 83.4368 163.812 83.3535 164.134 83.3485H168.079C168.404 83.3547 168.723 83.4379 169.01 83.5913C169.307 83.7237 169.57 83.9241 169.777 84.1765L172.275 87.1903C172.468 87.44 172.62 87.7196 172.724 88.0182C172.845 88.3124 172.908 88.6271 172.911 88.9454V93.4606C172.904 93.776 172.837 94.0872 172.713 94.377C172.607 94.6737 172.452 94.95 172.253 95.1939L169.777 98.0309C169.563 98.27 169.302 98.4617 169.01 98.5939C168.718 98.7312 168.401 98.8063 168.079 98.8147ZM164.134 84.5848C163.991 84.5922 163.85 84.6259 163.718 84.6843C163.583 84.7456 163.463 84.836 163.367 84.9492L160.792 87.9851C160.69 88.1228 160.609 88.2753 160.551 88.4376C160.488 88.5998 160.451 88.7713 160.442 88.9454V93.4606C160.45 93.6277 160.487 93.792 160.551 93.9463C160.613 94.0996 160.694 94.2445 160.792 94.377L163.323 97.2361C163.434 97.3418 163.564 97.4244 163.707 97.4789C163.84 97.5445 163.986 97.5822 164.134 97.5894H168.079C168.227 97.5845 168.373 97.5467 168.506 97.4789C168.65 97.4282 168.775 97.336 168.868 97.214L171.344 94.3988C171.448 94.2664 171.53 94.1172 171.585 93.9574C171.653 93.8006 171.69 93.6319 171.695 93.4606V88.9454C171.69 88.7671 171.653 88.5913 171.585 88.4265C171.532 88.259 171.451 88.1021 171.344 87.963L168.857 84.9492C168.758 84.8336 168.635 84.7428 168.495 84.6843C168.364 84.6239 168.223 84.59 168.079 84.5848H164.134Z" fill="#F40638"/>
<path d="M183.134 98.8155H181.128C180.806 98.8072 180.489 98.7321 180.197 98.5948C179.902 98.4568 179.635 98.266 179.408 98.0318L176.877 95.1948C176.674 94.956 176.515 94.6833 176.406 94.3889C176.291 94.0932 176.227 93.7792 176.22 93.4615V83.6254H177.436V93.4615C177.439 93.6293 177.476 93.7945 177.545 93.9472C177.599 94.1046 177.68 94.2507 177.787 94.3779L180.318 97.237C180.424 97.3427 180.551 97.4253 180.69 97.4798C180.826 97.5488 180.976 97.5866 181.128 97.5903H183.134C183.282 97.5854 183.428 97.5476 183.561 97.4798C183.708 97.4292 183.837 97.3373 183.933 97.2149L186.399 94.3997C186.507 94.2701 186.589 94.1201 186.64 93.9582C186.708 93.8014 186.745 93.6327 186.749 93.4615V83.6254H187.965V93.4615C187.958 93.7756 187.895 94.0859 187.779 94.3779C187.665 94.6731 187.506 94.9487 187.308 95.1948L184.832 98.0318C184.618 98.2709 184.356 98.4626 184.065 98.5948C183.773 98.7321 183.456 98.8072 183.134 98.8155Z" fill="#F40638"/>
<path d="M200.959 98.671H192.971C192.792 98.6731 192.615 98.639 192.449 98.5707C192.284 98.5024 192.133 98.4013 192.007 98.2734C191.876 98.151 191.773 98.0023 191.703 97.8368C191.633 97.6713 191.599 97.4929 191.602 97.3131V83.58H192.818V97.3131C192.816 97.3338 192.819 97.3545 192.826 97.374C192.833 97.3935 192.845 97.4113 192.859 97.426C192.874 97.4407 192.891 97.452 192.911 97.4592C192.93 97.4664 192.951 97.4692 192.971 97.4675H200.959V98.671Z" fill="#F40638"/>
<path d="M212.99 98.6709H205.013C204.834 98.6737 204.657 98.6401 204.491 98.5718C204.325 98.5035 204.175 98.4018 204.049 98.2734C203.918 98.151 203.815 98.0023 203.745 97.8368C203.675 97.6713 203.641 97.4929 203.644 97.3131V83.58H204.86V97.3131C204.858 97.3338 204.861 97.3545 204.868 97.374C204.875 97.3935 204.887 97.4113 204.901 97.426C204.916 97.4407 204.933 97.452 204.953 97.4592C204.972 97.4664 204.993 97.4692 205.013 97.4675H212.99V98.6709Z" fill="#F40638"/>
<path d="M220.925 91.2755C220.738 91.2832 220.552 91.2424 220.385 91.1574C220.218 91.0724 220.076 90.946 219.971 90.7898L214.701 84.0114L215.643 83.2607L220.925 90.0279L226.403 83.2386L227.334 84.0114L221.856 90.8116C221.744 90.9528 221.602 91.0676 221.441 91.1477C221.28 91.2278 221.104 91.2715 220.925 91.2755ZM221.659 98.6388H220.443V91.8275H221.659V98.6388Z" fill="#F40638"/>
<path d="M242.563 98.8151C242.429 98.7988 242.299 98.7578 242.179 98.6938C241.966 98.542 241.821 98.3121 241.774 98.0534L237.906 83.7794L239.068 83.4702L242.607 96.4748L246.529 84.7728C246.553 84.6509 246.602 84.5354 246.671 84.4329C246.741 84.3305 246.831 84.2434 246.935 84.1769C247.064 84.1185 247.2 84.0776 247.34 84.0553C247.476 84.0649 247.607 84.1067 247.724 84.1769C247.828 84.2434 247.917 84.3305 247.987 84.4329C248.057 84.5354 248.105 84.6509 248.129 84.7728L251.865 96.4748L255.591 83.4481L256.752 83.8015L252.676 98.0755C252.652 98.2005 252.605 98.3195 252.535 98.4256C252.465 98.5318 252.376 98.6229 252.271 98.6938C252.148 98.7591 252.014 98.8001 251.876 98.8151H251.712C251.634 98.7983 251.56 98.7687 251.493 98.727C251.403 98.6731 251.325 98.6018 251.263 98.5173C251.175 98.3968 251.109 98.2624 251.065 98.1197L247.318 86.2964L243.374 98.1197C243.352 98.2423 243.304 98.3587 243.234 98.4615C243.164 98.5642 243.074 98.651 242.968 98.7159C242.841 98.7768 242.703 98.8105 242.563 98.8151Z" fill="#F40638"/>
<path d="M268.004 98.8147H264.06C263.738 98.8076 263.42 98.7325 263.129 98.5939C262.836 98.4588 262.571 98.2676 262.351 98.0309L259.809 95.1939C259.606 94.9552 259.447 94.6824 259.338 94.3881C259.222 94.0923 259.159 93.7784 259.151 93.4606V88.9454C259.155 88.6283 259.214 88.3145 259.327 88.0182C259.435 87.719 259.59 87.4394 259.787 87.1903L262.351 84.1544C262.571 83.9177 262.836 83.7265 263.129 83.5913C263.415 83.4363 263.735 83.353 264.06 83.3485H268.004C268.326 83.3535 268.642 83.4368 268.925 83.5913C269.224 83.7253 269.49 83.9253 269.703 84.1765L272.19 87.1903C272.391 87.4368 272.546 87.7171 272.65 88.0182C272.766 88.314 272.829 88.6277 272.837 88.9454V93.4606C272.83 93.776 272.763 94.0872 272.639 94.377C272.525 94.6697 272.37 94.9446 272.179 95.1939L269.703 98.0309C269.484 98.27 269.22 98.4616 268.925 98.5939C268.637 98.7322 268.323 98.8074 268.004 98.8147ZM264.06 84.5848C263.916 84.59 263.775 84.6239 263.644 84.6843C263.504 84.7428 263.38 84.8336 263.282 84.9492L260.718 87.9851C260.608 88.1175 260.525 88.2715 260.477 88.4376C260.409 88.5983 260.372 88.7706 260.368 88.9454V93.4606C260.371 93.6284 260.408 93.7937 260.477 93.9463C260.53 94.1037 260.612 94.2499 260.718 94.377L263.249 97.2361C263.36 97.3418 263.49 97.4244 263.633 97.4789C263.765 97.5467 263.911 97.5845 264.06 97.5894H268.004C268.149 97.5829 268.291 97.5452 268.421 97.4789C268.569 97.4313 268.699 97.3388 268.793 97.214L271.27 94.3988C271.37 94.2638 271.451 94.1152 271.511 93.9574C271.571 93.7985 271.604 93.6306 271.609 93.4606V88.9454C271.604 88.7683 271.57 88.5933 271.511 88.4265C271.453 88.2609 271.372 88.1048 271.27 87.963L268.771 84.9492C268.673 84.8336 268.549 84.7428 268.41 84.6843C268.282 84.6253 268.145 84.5915 268.004 84.5848H264.06Z" fill="#F40638"/>
<path d="M287.828 99.0136L282.185 91.9371H277.583V98.6381H276.389V84.7393C276.389 84.3706 276.535 84.0173 276.794 83.7569C276.921 83.6266 277.073 83.5235 277.241 83.4534C277.408 83.3832 277.588 83.3476 277.769 83.3485H283.817C284.124 83.3556 284.427 83.4114 284.716 83.514C285.014 83.6112 285.292 83.7606 285.538 83.9555L287.313 85.3244C287.575 85.5249 287.786 85.7864 287.926 86.0863C288.074 86.3815 288.156 86.7053 288.167 87.0356V88.4708C288.161 88.8032 288.075 89.1292 287.915 89.4203C287.759 89.7168 287.538 89.9734 287.269 90.1709L285.538 91.3961C285.286 91.5681 285.008 91.6987 284.716 91.7826C284.427 91.8822 284.123 91.9343 283.817 91.9371L288.847 98.2519L287.828 99.0136ZM277.583 90.7118H283.796C283.975 90.7052 284.152 90.6716 284.321 90.6124C284.499 90.5665 284.666 90.4879 284.815 90.3806L286.557 89.1772C286.662 89.0894 286.748 88.9806 286.809 88.8573C286.875 88.739 286.912 88.6065 286.918 88.4708V87.0356C286.913 86.8964 286.875 86.7605 286.809 86.6383C286.754 86.5052 286.667 86.3876 286.557 86.296L284.782 84.9161C284.638 84.8047 284.474 84.7223 284.3 84.6732C284.136 84.6216 283.967 84.5918 283.796 84.5848H277.747C277.638 84.5848 277.583 84.5847 277.583 84.7393V90.7118Z" fill="#F40638"/>
<path d="M300.952 98.6709H292.975C292.795 98.674 292.615 98.6403 292.448 98.572C292.28 98.5038 292.128 98.4021 292 98.2734C291.871 98.1497 291.768 98.0009 291.699 97.8357C291.629 97.6705 291.594 97.4926 291.595 97.3131V83.58H292.822V97.3131C292.822 97.4125 292.822 97.4675 292.986 97.4675H300.963L300.952 98.6709Z" fill="#F40638"/>
<path d="M310.353 98.8147H305.324C305.144 98.8173 304.965 98.7826 304.799 98.7123C304.633 98.642 304.484 98.5378 304.36 98.4063C304.231 98.2798 304.129 98.1287 304.06 97.9619C303.99 97.7951 303.954 97.6157 303.954 97.4347V84.7174C303.953 84.5379 303.988 84.36 304.058 84.1948C304.128 84.0296 304.23 83.8805 304.36 83.7568C304.485 83.6274 304.635 83.5246 304.801 83.4544C304.966 83.3843 305.144 83.3484 305.324 83.3485H310.178C310.484 83.3547 310.787 83.4105 311.076 83.514C311.371 83.6085 311.648 83.75 311.898 83.9334L315.053 86.3952C315.303 86.5987 315.505 86.8552 315.645 87.1461C315.794 87.437 315.876 87.7573 315.886 88.0843V94.2997C315.874 94.6228 315.792 94.9392 315.645 95.2268C315.504 95.5267 315.294 95.7882 315.032 95.9888L312.095 98.1967C311.845 98.38 311.568 98.5215 311.273 98.616C310.979 98.7319 310.668 98.7989 310.353 98.8147ZM305.324 84.5848C305.225 84.5848 305.17 84.5849 305.17 84.7174V97.4347C305.169 97.4554 305.172 97.4764 305.179 97.4959C305.186 97.5154 305.197 97.5332 305.212 97.5479C305.226 97.5626 305.244 97.5739 305.263 97.5811C305.283 97.5883 305.303 97.5911 305.324 97.5894H310.353C310.532 97.5828 310.709 97.5492 310.879 97.49C311.05 97.4373 311.213 97.3592 311.361 97.2582L314.297 95.0503C314.412 94.9644 314.502 94.8503 314.56 94.719C314.616 94.5973 314.65 94.4666 314.659 94.3328V88.1174C314.651 87.9799 314.618 87.8452 314.56 87.7201C314.505 87.584 314.414 87.4656 314.297 87.3778L311.164 84.9492C311.024 84.8377 310.864 84.7551 310.693 84.7064C310.526 84.6545 310.352 84.6248 310.178 84.618L305.324 84.5848Z" fill="#F40638"/>
<path d="M318.966 96.2866C318.952 96.1475 318.967 96.007 319.011 95.8742C319.054 95.7414 319.124 95.6188 319.217 95.5149C319.31 95.411 319.423 95.328 319.55 95.2707C319.676 95.2135 319.813 95.1835 319.952 95.1826C320.091 95.1835 320.228 95.2135 320.354 95.2707C320.481 95.328 320.594 95.411 320.687 95.5149C320.78 95.6188 320.85 95.7414 320.893 95.8742C320.937 96.007 320.952 96.1475 320.938 96.2866C320.946 96.4216 320.926 96.5566 320.879 96.6836C320.833 96.8106 320.762 96.9269 320.669 97.025C320.577 97.1232 320.466 97.2013 320.342 97.2547C320.219 97.308 320.086 97.3355 319.952 97.3353C319.818 97.3355 319.685 97.308 319.561 97.2547C319.438 97.2013 319.327 97.1232 319.235 97.025C319.142 96.9269 319.071 96.8106 319.025 96.6836C318.978 96.5566 318.958 96.4216 318.966 96.2866Z" fill="#F40638"/>
<path d="M332.027 98.8147H328.302C327.978 98.8076 327.66 98.7285 327.37 98.5829C327.079 98.4507 326.818 98.2589 326.603 98.0199L324.248 95.1939C324.053 94.9493 323.901 94.6731 323.798 94.377C323.686 94.0846 323.627 93.7742 323.623 93.4606V88.9454C323.628 88.6294 323.684 88.3165 323.787 88.0182C323.879 87.7165 324.028 87.4354 324.226 87.1903L326.603 84.1873C326.81 83.9314 327.072 83.7276 327.37 83.5913C327.658 83.4379 327.977 83.3547 328.302 83.3485H332.027C332.357 83.3546 332.68 83.4417 332.969 83.6024C333.264 83.7596 333.518 83.9822 333.714 84.2536L336.114 87.8304L335.106 88.5149L332.706 84.9492C332.628 84.8365 332.522 84.7455 332.4 84.6843C332.284 84.6244 332.157 84.5904 332.027 84.5848H328.302C328.165 84.5928 328.031 84.6266 327.907 84.6843C327.768 84.7428 327.644 84.8336 327.546 84.9492L325.168 87.9519C325.066 88.0979 324.985 88.2576 324.927 88.4265C324.865 88.5929 324.828 88.7678 324.817 88.9454V93.4606C324.828 93.6346 324.865 93.8059 324.927 93.9684C324.984 94.1274 325.065 94.2763 325.168 94.4099L327.524 97.214C327.616 97.336 327.742 97.4282 327.885 97.4789C328.014 97.5462 328.156 97.584 328.302 97.5894H332.027C332.172 97.5855 332.315 97.5476 332.443 97.4789C332.587 97.4282 332.713 97.336 332.805 97.214L335.566 93.825L336.497 94.6088L333.736 97.9978C333.529 98.2496 333.266 98.4498 332.969 98.5829C332.676 98.7301 332.354 98.8093 332.027 98.8147Z" fill="#F40638"/>
<path d="M348.21 98.8147H344.321C343.999 98.8063 343.682 98.7312 343.389 98.5939C343.098 98.4617 342.837 98.27 342.622 98.0309L340.069 95.1939C339.867 94.9572 339.711 94.6837 339.609 94.3881C339.486 94.0944 339.419 93.7796 339.412 93.4606V88.9454C339.42 88.6277 339.483 88.314 339.598 88.0182C339.703 87.7196 339.854 87.44 340.048 87.1903L342.622 84.1544C342.837 83.9153 343.098 83.7236 343.389 83.5913C343.677 83.4379 343.996 83.3547 344.321 83.3485H348.265C348.59 83.3547 348.909 83.4379 349.197 83.5913C349.492 83.7267 349.754 83.9266 349.964 84.1765L352.462 87.1903C352.655 87.44 352.807 87.7196 352.911 88.0182C353.026 88.314 353.089 88.6277 353.097 88.9454V93.4606C353.091 93.776 353.024 94.0872 352.9 94.377C352.785 94.6697 352.63 94.9446 352.44 95.1939L349.964 98.0309C349.747 98.2675 349.486 98.4588 349.197 98.5939C348.888 98.7388 348.551 98.8141 348.21 98.8147ZM344.266 84.5848C344.122 84.59 343.981 84.6239 343.85 84.6843C343.712 84.7466 343.589 84.8368 343.488 84.9492L340.924 87.9851C340.817 88.1201 340.736 88.2733 340.683 88.4376C340.615 88.5983 340.578 88.7706 340.574 88.9454V93.4606C340.577 93.6284 340.614 93.7937 340.683 93.9463C340.74 94.1017 340.822 94.2471 340.924 94.377L343.455 97.2361C343.566 97.3418 343.696 97.4244 343.839 97.4789C343.971 97.5467 344.117 97.5845 344.266 97.5894H348.21C348.359 97.5822 348.504 97.5445 348.638 97.4789C348.781 97.4282 348.907 97.336 348.999 97.214L351.476 94.3988C351.58 94.2664 351.662 94.1172 351.717 93.9574C351.78 93.7989 351.817 93.6311 351.826 93.4606V88.9454C351.816 88.7678 351.779 88.5929 351.717 88.4265C351.664 88.259 351.582 88.1021 351.476 87.963L348.977 84.9492C348.881 84.836 348.762 84.7456 348.627 84.6843C348.495 84.6259 348.354 84.5922 348.21 84.5848H344.266Z" fill="#F40638"/>
<path d="M370.671 98.6723H369.443V86.5288L364.524 97.9327C364.444 98.1708 364.28 98.3711 364.064 98.4957C363.938 98.5501 363.805 98.5835 363.669 98.5949C363.534 98.5831 363.402 98.5536 363.275 98.5068C363.167 98.4497 363.072 98.3714 362.994 98.2766C362.917 98.1818 362.86 98.0724 362.825 97.9548L357.643 86.4072V98.6723H356.448V84.3208C356.433 84.1958 356.443 84.0689 356.477 83.9476C356.51 83.8263 356.568 83.7131 356.646 83.6144C356.748 83.5114 356.871 83.432 357.007 83.3824C357.144 83.3491 357.287 83.3491 357.424 83.3824C357.61 83.4376 357.774 83.6363 357.917 83.9565L363.669 96.8066L369.224 83.9565C369.301 83.7227 369.461 83.5261 369.673 83.4045C369.808 83.3337 369.961 83.3069 370.112 83.3274C370.265 83.3649 370.403 83.4498 370.506 83.5702C370.652 83.7709 370.718 84.0185 370.692 84.2656L370.671 98.6723Z" fill="#F40638"/>
<path fill-rule="evenodd" clip-rule="evenodd" d="M119.101 60C119.101 93.1371 92.4394 120 59.5506 120C26.6617 120 0 93.1371 0 60C0 26.8629 26.6617 0 59.5506 0C92.4394 0 119.101 26.8629 119.101 60ZM39.5734 11.4039C45.9099 8.75826 52.7017 7.39668 59.5607 7.39668C66.4193 7.39813 73.2104 8.76071 79.5463 11.4069C85.8821 14.053 91.6386 17.9307 96.4868 22.8186C101.335 27.7065 105.18 33.5091 107.802 39.8944C110.425 46.2797 111.773 53.1229 111.77 60.0332C111.767 73.9836 106.266 87.3618 96.4752 97.2262C86.6846 107.091 73.4066 112.634 59.5607 112.637C45.7139 112.637 32.4342 107.095 22.6431 97.2295C12.8519 87.3644 7.35127 73.9845 7.35127 60.0332C7.34695 53.1224 8.69421 46.2785 11.316 39.8925C13.9379 33.5065 17.7829 27.7036 22.6314 22.8154C27.48 17.9272 33.237 14.0496 39.5734 11.4039ZM49.6959 71.3854C51.237 72.9382 53.3272 73.8106 55.5066 73.8106C56.5853 73.8106 57.6534 73.5964 58.6498 73.1802C59.6462 72.7639 60.5514 72.1539 61.3136 71.3849C62.0758 70.6159 62.68 69.703 63.0918 68.6986C63.5036 67.6941 63.7148 66.6177 63.7134 65.5309C63.7134 63.3379 62.8487 61.2349 61.3097 59.6842C59.7706 58.1335 57.6832 57.2623 55.5066 57.2623C54.428 57.2608 53.3597 57.4738 52.3628 57.8886C51.3658 58.3035 50.4598 58.9122 49.6966 59.6802C48.9334 60.4481 48.3279 61.3601 47.9147 62.364C47.5016 63.368 47.289 64.4441 47.289 65.5309C47.289 67.7268 48.1548 69.8327 49.6959 71.3854ZM78.5943 73.1802C79.5907 73.5964 80.6587 73.8106 81.7374 73.8106C82.816 73.8106 83.8841 73.5964 84.8805 73.1802C85.8769 72.7639 86.7821 72.1539 87.5443 71.3849C88.3065 70.6159 88.9108 69.703 89.3225 68.6986C89.7343 67.6941 89.9456 66.6177 89.9441 65.5309C89.9441 63.3379 89.0795 61.2349 87.5404 59.6842C86.0014 58.1335 83.9139 57.2623 81.7374 57.2623C79.5608 57.2623 77.4735 58.1335 75.9344 59.6842C74.3954 61.2349 73.5307 63.3379 73.5307 65.5309C73.5293 66.6177 73.7405 67.6941 74.1522 68.6986C74.564 69.703 75.1683 70.6159 75.9305 71.3849C76.6927 72.1539 77.5979 72.7639 78.5943 73.1802ZM97.4824 69.6597C97.4824 74.8262 99.1588 79.1979 103.826 81.0305V81.0084C106.024 75.6256 107.152 69.8607 107.146 64.0405C107.146 52.1826 102.471 40.8105 94.1491 32.4257C85.8271 24.0409 74.5401 19.3302 62.7711 19.3302C51.002 19.3302 39.715 24.0409 31.393 32.4257C23.071 40.8105 18.3957 52.1826 18.3957 64.0405C18.3988 74.4046 21.9745 84.4461 28.5117 92.4482C35.0489 100.45 44.1416 105.916 54.2357 107.912C45.2291 101.895 39.7507 91.6946 39.7507 78.4471V65.3212C39.7607 61.523 40.5167 57.7644 41.9751 54.262C43.4336 50.7596 45.5657 47.5827 48.2486 44.9145C50.9314 42.2463 54.112 40.1396 57.6068 38.7158C61.1016 37.2919 64.8416 36.579 68.6111 36.6184C72.402 36.6169 76.1561 37.368 79.6588 38.8287C83.1616 40.2894 86.3444 42.4309 89.0255 45.1312C91.7066 47.8315 93.8335 51.0376 95.2845 54.5663C96.7356 58.0949 97.4824 61.8769 97.4824 65.6964V69.6597Z" fill="white"/>
</svg>
