<svg width="80" height="80" viewBox="0 0 80 80" fill="none" xmlns="http://www.w3.org/2000/svg">
<path d="M45.1248 38.1497C45.1248 50.437 35.0231 60.3978 22.5628 60.3978C10.1024 60.3978 0 50.4348 0 38.1497C0 25.8647 10.1017 15.9009 22.5628 15.9009C35.0239 15.9009 45.1248 25.8624 45.1248 38.1497ZM69.8761 38.1497C69.8761 49.7156 64.8253 59.0953 58.5947 59.0953C52.3642 59.0953 47.3133 49.7156 47.3133 38.1497C47.3133 26.5839 52.3634 17.2042 58.5939 17.2042C64.8245 17.2042 69.8753 26.5809 69.8753 38.1497H69.8761ZM80 38.1497C80 48.5099 78.2239 56.9136 76.0323 56.9136C73.8407 56.9136 72.0654 48.5121 72.0654 38.1497C72.0654 27.7873 73.8415 19.3858 76.0323 19.3858C78.2231 19.3858 80 27.7865 80 38.1497Z" fill="white"/>
</svg>
