<svg width="80" height="80" viewBox="0 0 80 80" fill="none" xmlns="http://www.w3.org/2000/svg">
<path d="M40 0C17.912 0 0 17.912 0 40C0 62.088 17.912 80 40 80C62.088 80 80 62.088 80 40C80 17.912 62.096 0 40 0ZM19.736 41.344L19.904 41.072L30.312 24.792C30.464 24.56 30.824 24.584 30.936 24.84C32.672 28.736 34.176 33.584 33.472 36.6C33.176 37.84 32.352 39.52 31.424 41.072C31.304 41.296 31.176 41.52 31.032 41.736C30.968 41.832 30.856 41.888 30.736 41.888H20.04C19.752 41.888 19.584 41.576 19.736 41.344ZM66.112 46.944C66.112 47.096 66.024 47.224 65.896 47.28C65.088 47.624 62.328 48.896 61.184 50.488C58.256 54.56 56.024 60.384 51.024 60.384H30.176C22.784 60.384 16.8 54.376 16.8 46.96V46.72C16.8 46.528 16.96 46.368 17.16 46.368H28.776C29.008 46.368 29.176 46.576 29.16 46.808C29.072 47.56 29.216 48.336 29.576 49.04C30.264 50.44 31.696 51.312 33.24 51.312H38.992V46.824H33.304C33.016 46.824 32.84 46.488 33.008 46.248C33.072 46.152 33.136 46.056 33.216 45.944C33.752 45.176 34.52 43.992 35.288 42.64C35.808 41.728 36.312 40.752 36.72 39.776C36.8 39.6 36.864 39.416 36.936 39.24C37.048 38.928 37.16 38.632 37.24 38.344C37.32 38.096 37.392 37.84 37.456 37.6C37.648 36.768 37.728 35.888 37.728 34.976C37.728 34.616 37.712 34.24 37.68 33.888C37.664 33.496 37.616 33.104 37.568 32.712C37.536 32.368 37.472 32.024 37.408 31.672C37.32 31.152 37.208 30.632 37.08 30.112L37.032 29.912C36.936 29.552 36.848 29.216 36.736 28.856C36.408 27.736 36.04 26.64 35.64 25.616C35.496 25.208 35.336 24.816 35.168 24.432C34.928 23.84 34.68 23.304 34.456 22.8C34.336 22.568 34.24 22.36 34.144 22.144C34.032 21.904 33.92 21.664 33.8 21.432C33.72 21.256 33.624 21.088 33.56 20.928L32.856 19.632C32.76 19.456 32.92 19.24 33.112 19.296L37.512 20.488H37.528C37.536 20.488 37.536 20.488 37.544 20.488L38.12 20.656L38.76 20.832L38.992 20.896V18.288C38.992 17.024 40 16 41.256 16C41.88 16 42.448 16.256 42.848 16.672C43.256 17.088 43.512 17.656 43.512 18.288V22.168L43.984 22.296C44.016 22.312 44.056 22.328 44.088 22.352C44.2 22.432 44.368 22.56 44.576 22.72C44.744 22.848 44.92 23.008 45.128 23.176C45.552 23.52 46.064 23.96 46.616 24.464C46.76 24.592 46.904 24.72 47.04 24.856C47.752 25.52 48.552 26.296 49.32 27.16C49.536 27.408 49.744 27.648 49.96 27.912C50.168 28.176 50.4 28.432 50.592 28.688C50.856 29.032 51.128 29.392 51.376 29.768C51.488 29.944 51.624 30.128 51.728 30.304C52.048 30.776 52.32 31.264 52.584 31.752C52.696 31.976 52.808 32.224 52.904 32.464C53.2 33.12 53.432 33.784 53.576 34.456C53.624 34.6 53.656 34.752 53.672 34.896V34.928C53.72 35.12 53.736 35.328 53.752 35.544C53.816 36.224 53.784 36.912 53.64 37.6C53.576 37.888 53.496 38.16 53.4 38.456C53.296 38.736 53.2 39.024 53.072 39.304C52.824 39.872 52.536 40.448 52.192 40.976C52.08 41.176 51.944 41.384 51.816 41.584C51.672 41.792 51.52 41.992 51.392 42.184C51.208 42.432 51.016 42.688 50.816 42.92C50.64 43.16 50.464 43.4 50.264 43.616C49.992 43.944 49.728 44.248 49.448 44.544C49.288 44.736 49.112 44.936 48.928 45.112C48.752 45.312 48.568 45.488 48.408 45.648C48.128 45.928 47.904 46.136 47.712 46.32L47.256 46.728C47.192 46.792 47.104 46.824 47.016 46.824H43.512V51.312H47.92C48.904 51.312 49.84 50.968 50.6 50.32C50.856 50.096 51.984 49.12 53.32 47.648C53.368 47.592 53.424 47.56 53.488 47.544L65.656 44.024C65.888 43.96 66.112 44.128 66.112 44.368V46.944Z" fill="white"/>
</svg>
