<svg width="80" height="80" viewBox="0 0 80 80" fill="none" xmlns="http://www.w3.org/2000/svg">
<path d="M78.8097 16.4567C76.0263 17.69 73.0364 18.5233 69.893 18.9C73.0998 16.98 75.5597 13.9333 76.7197 10.3067C73.7197 12.0867 70.3963 13.38 66.8597 14.0733C64.0263 11.06 59.9929 9.17334 55.5263 9.17334C46.9529 9.17334 39.9997 16.1267 39.9997 24.7068C39.9997 25.92 40.1398 27.1 40.3997 28.24C27.4897 27.59 16.053 21.4068 8.39303 12.0133C7.05971 14.3133 6.29303 16.98 6.29303 19.82C6.29303 25.2068 9.03637 29.9634 13.1997 32.7468C10.653 32.6634 8.25971 31.9668 6.16637 30.8034V31.0034C6.16637 38.5266 11.5164 44.8034 18.623 46.23C17.3164 46.5834 15.9464 46.77 14.533 46.77C13.533 46.77 12.5564 46.6766 11.6097 46.4966C13.5864 52.6634 19.3197 57.1566 26.1163 57.2766C20.7997 61.4434 14.103 63.9266 6.82971 63.9266C5.57637 63.9266 4.33971 63.8534 3.12305 63.71C9.99637 68.12 18.1564 70.6866 26.9229 70.6866C55.4897 70.6866 71.1063 47.0266 71.1063 26.5068C71.1063 25.84 71.0897 25.1668 71.0597 24.5C74.0929 22.3068 76.7263 19.5767 78.8029 16.4667L78.8097 16.4567Z" fill="white"/>
</svg>
