<svg width="120" height="120" viewBox="0 0 120 120" fill="none" xmlns="http://www.w3.org/2000/svg">
<path fill-rule="evenodd" clip-rule="evenodd" d="M119.101 60C119.101 93.1371 92.4394 120 59.5506 120C26.6617 120 0 93.1371 0 60C0 26.8629 26.6617 0 59.5506 0C92.4394 0 119.101 26.8629 119.101 60ZM39.5734 11.4039C45.9099 8.75826 52.7017 7.39668 59.5607 7.39668C66.4193 7.39813 73.2104 8.76071 79.5463 11.4069C85.8821 14.053 91.6386 17.9307 96.4868 22.8186C101.335 27.7065 105.18 33.5091 107.802 39.8944C110.425 46.2797 111.773 53.1229 111.77 60.0332C111.767 73.9836 106.266 87.3618 96.4752 97.2262C86.6846 107.091 73.4066 112.634 59.5607 112.637C45.7139 112.637 32.4342 107.095 22.6431 97.2295C12.8519 87.3644 7.35127 73.9845 7.35127 60.0332C7.34695 53.1224 8.69421 46.2785 11.316 39.8925C13.9379 33.5065 17.7829 27.7036 22.6314 22.8154C27.48 17.9272 33.237 14.0496 39.5734 11.4039ZM49.6959 71.3854C51.237 72.9382 53.3272 73.8106 55.5066 73.8106C56.5853 73.8106 57.6534 73.5964 58.6498 73.1802C59.6462 72.7639 60.5514 72.1539 61.3136 71.3849C62.0758 70.6159 62.68 69.703 63.0918 68.6986C63.5036 67.6941 63.7148 66.6177 63.7134 65.5309C63.7134 63.3379 62.8487 61.2349 61.3097 59.6842C59.7706 58.1335 57.6832 57.2623 55.5066 57.2623C54.428 57.2608 53.3597 57.4738 52.3628 57.8886C51.3658 58.3035 50.4598 58.9122 49.6966 59.6802C48.9334 60.4481 48.3279 61.3601 47.9147 62.364C47.5016 63.368 47.289 64.4441 47.289 65.5309C47.289 67.7268 48.1548 69.8327 49.6959 71.3854ZM78.5943 73.1802C79.5907 73.5964 80.6587 73.8106 81.7374 73.8106C82.816 73.8106 83.8841 73.5964 84.8805 73.1802C85.8769 72.7639 86.7821 72.1539 87.5443 71.3849C88.3065 70.6159 88.9108 69.703 89.3225 68.6986C89.7343 67.6941 89.9456 66.6177 89.9441 65.5309C89.9441 63.3379 89.0795 61.2349 87.5404 59.6842C86.0014 58.1335 83.9139 57.2623 81.7374 57.2623C79.5608 57.2623 77.4735 58.1335 75.9344 59.6842C74.3954 61.2349 73.5307 63.3379 73.5307 65.5309C73.5293 66.6177 73.7405 67.6941 74.1522 68.6986C74.564 69.703 75.1683 70.6159 75.9305 71.3849C76.6927 72.1539 77.5979 72.7639 78.5943 73.1802ZM97.4824 69.6597C97.4824 74.8262 99.1588 79.1979 103.826 81.0305V81.0084C106.024 75.6256 107.152 69.8607 107.146 64.0405C107.146 52.1826 102.471 40.8105 94.1491 32.4257C85.8271 24.0409 74.5401 19.3302 62.7711 19.3302C51.002 19.3302 39.715 24.0409 31.393 32.4257C23.071 40.8105 18.3957 52.1826 18.3957 64.0405C18.3988 74.4046 21.9745 84.4461 28.5117 92.4482C35.0489 100.45 44.1416 105.916 54.2357 107.912C45.2291 101.895 39.7507 91.6946 39.7507 78.4471V65.3212C39.7607 61.523 40.5167 57.7644 41.9751 54.262C43.4336 50.7596 45.5657 47.5827 48.2486 44.9145C50.9314 42.2463 54.112 40.1396 57.6068 38.7158C61.1016 37.2919 64.8416 36.579 68.6111 36.6184C72.402 36.6169 76.1561 37.368 79.6588 38.8287C83.1616 40.2894 86.3444 42.4309 89.0255 45.1312C91.7066 47.8315 93.8335 51.0376 95.2845 54.5663C96.7356 58.0949 97.4824 61.8769 97.4824 65.6964V69.6597Z" fill="#000"/>
</svg>
